<svg viewBox="0 0 753 815" xmlns="http://www.w3.org/2000/svg" xmlns:xlink="http://www.w3.org/1999/xlink"><linearGradient id="a" gradientUnits="userSpaceOnUse" x1="0" x2="753" y1="407.5" y2="407.5"><stop offset="0" stop-color="#e1ccda"/><stop offset=".34" stop-color="#ddd5df"/><stop offset=".91" stop-color="#d4eeee"/><stop offset=".99" stop-color="#d3f3f1"/></linearGradient><path d="m0 0h450.01l.34.34v-.08c46.45.4 90.83 13.92 131.91 40.21 36.03 23.06 67.72 54.92 94.18 94.72 49.37 74.26 76.56 170.99 76.56 272.38s-27.19 198.12-76.56 272.38c-26.46 39.8-58.15 71.67-94.18 94.72-41.08 26.29-85.46 39.81-131.91 40.21v-.21s-.34.34-.34.34h-450.01" fill="url(#a)"/><path d="m447.42 100.25v614.62c113.64-.91 205.58-138.14 205.58-307.31s-91.94-306.41-205.58-307.31z"/><path d="m300 187.82v439.49c81.26-.65 147-98.78 147-219.74s-65.74-219.09-147-219.74z"/><path d="m203 262.56v290c53.62-.43 97-65.18 97-145s-43.38-144.57-97-145z"/><circle cx="151" cy="408" r="52"/></svg>